<?xml version="1.0" encoding="utf-8"?>
<!-- Generator: Adobe Illustrator 16.0.0, SVG Export Plug-In . SVG Version: 6.00 Build 0)  -->
<!DOCTYPE svg PUBLIC "-//W3C//DTD SVG 1.1//EN" "http://www.w3.org/Graphics/SVG/1.1/DTD/svg11.dtd">
<svg version="1.1" id="圖層_1" xmlns="http://www.w3.org/2000/svg" xmlns:xlink="http://www.w3.org/1999/xlink" x="0px" y="0px"
	 width="512px" height="512px" viewBox="0 0 512 512" enable-background="new 0 0 512 512" xml:space="preserve">
<path fill="#808080" d="M294.672,63.957c32.84,5.086,63.301,16.641,88.09,33.41c23.973,16.219,41.598,36.539,50.973,58.77
	c1.609,3.824,5.316,6.121,9.219,6.121c1.297,0,2.613-0.254,3.883-0.789c5.09-2.148,7.473-8.012,5.328-13.102
	c-10.883-25.809-31.008-49.172-58.195-67.566c-27.219-18.414-60.496-31.074-96.238-36.609c-5.449-0.844-10.566,2.895-11.41,8.355
	C285.473,58,289.211,63.109,294.672,63.957z"/>
<path fill="#808080" d="M100.352,138.973c1.582,3.797,5.609,6.355,9.719,6.16c4.059-0.195,7.785-3.066,9.02-6.938
	c1.25-3.918-0.148-8.492-3.43-10.988c-3.395-2.578-8.383-2.672-11.867-0.211C100.086,129.613,98.637,134.789,100.352,138.973z"/>
<path fill="#808080" d="M148.531,101.734c1.598,3.84,5.695,6.426,9.855,6.16c4.012-0.262,7.66-3.121,8.891-6.945
	c1.254-3.891-0.152-8.422-3.379-10.93c-3.41-2.645-8.484-2.754-11.984-0.219C148.273,92.438,146.797,97.574,148.531,101.734z"/>
<path fill="#808080" d="M200.289,138.973c1.582,3.797,5.613,6.355,9.723,6.16c4.059-0.195,7.793-3.066,9.027-6.938
	c1.25-3.922-0.156-8.496-3.441-10.988c-3.395-2.578-8.379-2.672-11.867-0.211C200.027,129.613,198.574,134.789,200.289,138.973z"/>
<path fill="#808080" d="M512,316.938c0-22.02-14.148-40.785-33.824-47.719v-25.023c3.164-1.168,6.211-2.707,9.074-4.629
	c11.387-7.652,17.918-19.73,17.918-33.148c0-8.391-2.594-16.332-7.414-23.012c2.438-5.777,3.172-12.191,1.988-18.512
	c-8.563-45.797-37.969-87.719-82.801-118.051C372.289,16.637,315.133,0,256,0S139.711,16.637,95.059,46.844
	C50.227,77.172,20.82,119.098,12.258,164.895c-1.484,7.926,0.043,15.996,4.176,22.773c-3.113,5.711-4.734,12.07-4.734,18.75
	c0,13.418,6.531,25.504,17.922,33.152c1.359,0.914,2.77,1.73,4.203,2.477v27.172C14.148,276.152,0,294.918,0,316.938v2.031
	c0,14.586,6.215,27.742,16.125,36.984c-2.891,5.563-4.426,11.75-4.426,18.121c0,10.012,3.641,19.273,10.215,26.512v36.086
	c0,38.551,31.363,69.918,69.918,69.918h328.336c38.555,0,69.918-31.367,69.918-69.918v-31.551
	c9.621-7.668,15.082-18.797,15.082-31.051c0-7.684-2.164-14.957-6.207-21.246C507.059,343.855,512,331.98,512,318.969V316.938z
	 M492,316.938v2.031c0,10.324-5.148,19.465-13.008,25.008c-5.121,3.609-11.313,5.578-17.578,5.578H306.348l63.77-63.203h91.293
	C478.277,286.352,492,300.074,492,316.938z M151.566,286.352l1.586,1.59l10.258,10.254l-21.473,21.477l-33.32-33.32H151.566z
	 M245.984,352.484l-61.352-61.348c0-0.004-0.004-0.008-0.008-0.012l-4.773-4.773h161.813l-66.832,66.094
	c-0.004,0.004-0.008,0.008-0.012,0.016c-0.008,0.008-0.02,0.016-0.027,0.023l-14.406,14.406L245.984,352.484z M31.914,168.566
	c7.574-40.5,33.98-77.848,74.352-105.16C147.645,35.414,200.82,20,256,20s108.355,15.414,149.734,43.406
	c40.371,27.313,66.773,64.66,74.352,105.16c1.402,7.512-4.598,14.688-12.223,14.688H44.137
	C36.5,183.254,30.512,176.078,31.914,168.566z M32.438,201.078c3.715,1.438,7.719,2.176,11.699,2.176h423.727
	c5.52,0,11.07-1.43,15.883-4.137c0.941,2.313,1.422,4.801,1.422,7.297c0,6.645-3.305,12.676-9.07,16.547
	c-5.895,3.961-13.402,4.91-20.145,2.777c-3.332-1.055-6.477-2.414-9.914-3.148c-3.719-0.797-7.523-1.148-11.324-1.148
	c-17.863,0-27.449,6.766-35.148,12.199c-6.758,4.773-12.094,8.543-23.609,8.543s-16.852-3.77-23.609-8.539
	c-7.699-5.441-17.281-12.203-35.148-12.203c-17.863,0-27.445,6.766-35.145,12.203c-6.758,4.77-12.094,8.539-23.609,8.539
	s-16.855-3.77-23.613-8.543c-7.699-5.438-17.281-12.199-35.145-12.199s-27.449,6.766-35.148,12.199
	c-6.758,4.773-12.098,8.543-23.609,8.543c-11.52,0-16.855-3.77-23.617-8.543c-7.699-5.438-17.281-12.199-35.148-12.199
	c-7.066,0-13.438,1.199-19.48,3.664c-7.137,2.914-15.488,2.176-21.91-2.141c-5.766-3.871-9.07-9.902-9.07-16.547
	C31.699,204.578,31.949,202.789,32.438,201.078z M55.813,246.816c5.246-0.254,10.168-1.578,15.051-3.438
	c4.871-1.859,10.184-2.227,15.344-1.766c8.828,0.785,13.656,4.195,19.57,8.367c7.699,5.438,17.281,12.203,35.148,12.203
	c17.863,0,27.445-6.766,35.145-12.203c6.758-4.77,12.098-8.539,23.613-8.539s16.852,3.77,23.609,8.539
	c7.699,5.438,17.285,12.203,35.148,12.203s27.445-6.766,35.145-12.203c6.758-4.77,12.098-8.539,23.609-8.539
	c11.516,0,16.855,3.77,23.613,8.539c7.699,5.438,17.281,12.203,35.145,12.203s27.445-6.766,35.145-12.203
	c6.762-4.77,12.098-8.539,23.613-8.539c4.086,0,8.098,0.68,11.906,2.176c3.715,1.461,7.582,2.512,11.555,2.977v19.762h-92.168
	c-0.004,0-0.004,0-0.008,0h-0.004H155.738c-0.008,0-0.02,0-0.027,0c-0.012,0-0.023,0-0.031,0H53.824v-19.484
	C54.488,246.867,55.148,246.848,55.813,246.816z M20,316.938c0-16.863,13.723-30.586,30.586-30.586h29.75l54.531,54.535
	c1.875,1.875,4.418,2.926,7.07,2.926s5.195-1.051,7.07-2.926l28.547-28.547l37.215,37.215H50.586c-5.285,0-10.539-1.398-15.125-4.02
	C26.234,340.266,20,330.336,20,318.969V316.938z M33.352,366.527c5.504,1.996,11.379,3.027,17.234,3.027H234.77l18.547,18.547
	c3.836,3.84,10.262,3.848,14.109,0.031l18.746-18.578H461.41c5.641,0,11.273-0.957,16.602-2.801
	c1.117-0.387,2.258-0.777,3.309-1.316c0.34-0.176,0.832-0.566,1.234-0.539c0.555,0.039,0.699,0.746,0.898,1.191
	c1.082,2.387,1.66,5,1.707,7.621c0.168,9.434-6.625,17.328-15.496,19.898c-5.082,1.477-10.586,1.148-15.484-0.852
	c-6.031-2.465-12.402-3.664-19.469-3.664c-17.863,0-27.445,6.766-35.145,12.203c-6.762,4.773-12.098,8.543-23.613,8.543
	c-11.512,0-16.852-3.77-23.609-8.543c-7.699-5.438-17.281-12.203-35.145-12.203s-27.445,6.766-35.148,12.203
	c-6.758,4.773-12.094,8.543-23.609,8.543s-16.852-3.77-23.613-8.543c-7.699-5.438-17.281-12.203-35.145-12.203
	s-27.445,6.766-35.148,12.203c-6.758,4.773-12.094,8.543-23.609,8.543c-11.52,0-16.855-3.773-23.613-8.543
	c-7.703-5.438-17.285-12.203-35.152-12.203c-7.066,0-13.438,1.199-19.477,3.668c-6.527,2.664-14.137,2.313-20.297-1.156
	c-5.449-3.066-9.508-8.324-10.461-14.57c-0.285-1.848-0.301-3.738-0.055-5.594C31.941,370.902,32.859,366.348,33.352,366.527z
	 M470.086,436.672c0,27.523-22.395,49.918-49.918,49.918H91.832c-27.523,0-49.918-22.395-49.918-49.918v-23.719
	c8.211,2.328,17.074,2.164,25.52-0.645c0.172-0.059,0.344-0.117,0.512-0.172c0.77-0.27,1.539-0.547,2.297-0.859
	c3.594-1.469,7.492-2.18,11.918-2.18c11.52,0,16.855,3.766,23.613,8.539c7.703,5.438,17.285,12.203,35.152,12.203
	c17.863,0,27.445-6.766,35.145-12.203c6.758-4.773,12.098-8.539,23.609-8.539c11.516,0,16.855,3.766,23.613,8.539
	c7.699,5.438,17.281,12.203,35.148,12.203c17.863,0,27.445-6.766,35.145-12.203c6.758-4.773,12.098-8.539,23.609-8.539
	c11.516,0,16.855,3.766,23.609,8.539c7.699,5.438,17.285,12.203,35.148,12.203s27.445-6.766,35.145-12.203
	c6.758-4.773,12.098-8.539,23.613-8.539c2.98,0,5.969,0.332,8.848,1.133c2.738,0.762,5.324,1.965,8.063,2.738
	c5.945,1.676,12.363,2.031,18.461,1.039v22.664H470.086z"/>
<path fill="#808080" d="M225.91,101.734c1.582,3.797,5.613,6.375,9.727,6.164c4.059-0.207,7.781-3.066,9.02-6.934
	c1.258-3.922-0.152-8.488-3.43-10.992c-3.387-2.59-8.383-2.688-11.863-0.215C225.672,92.375,224.164,97.551,225.91,101.734z"/>
<path fill="#808080" d="M271.02,145.813c1.582,3.801,5.609,6.355,9.719,6.16c4.063-0.195,7.777-3.07,9.023-6.934
	c1.262-3.918-0.152-8.496-3.434-10.992c-3.395-2.582-8.383-2.668-11.867-0.211C270.758,136.453,269.305,141.629,271.02,145.813z"/>
<path fill="#808080" d="M245.488,56.023c3.559,2.371,8.563,2.137,11.871-0.574c3.234-2.648,4.527-7.34,3.035-11.254
	c-1.453-3.801-5.305-6.508-9.387-6.488c-4.039,0.023-7.879,2.676-9.309,6.457C240.102,48.398,241.734,53.5,245.488,56.023z"/>
</svg>
