<?xml version="1.0" encoding="utf-8"?>
<!-- Generator: Adobe Illustrator 16.0.0, SVG Export Plug-In . SVG Version: 6.00 Build 0)  -->
<!DOCTYPE svg PUBLIC "-//W3C//DTD SVG 1.1//EN" "http://www.w3.org/Graphics/SVG/1.1/DTD/svg11.dtd">
<svg version="1.1" id="Capa_1" xmlns="http://www.w3.org/2000/svg" xmlns:xlink="http://www.w3.org/1999/xlink" x="0px" y="0px"
	 width="850.39px" height="680.309px" viewBox="0 0 850.39 680.309" enable-background="new 0 0 850.39 680.309"
	 xml:space="preserve">
<g>
	<g>
		<path fill="#808080" d="M755.544,623.264l-34.076-34.076c3.086-8.504,4.654-17.422,4.654-26.629
			c0-41.178-31.877-75.027-72.246-78.227c0.16-13.26-3.684-26.518-11.439-37.813c7.449-10.811,11.457-23.605,11.457-37.018
			c0-17.473-6.805-33.9-19.16-46.256c-22.613-22.612-57.799-25.175-83.264-7.693c-9.24-6.342-19.955-10.193-31.139-11.193
			c-6.918-21.489-20.504-43.494-39.619-62.606c-15.008-15.009-31.803-26.617-48.727-34.263c-1.889-7.507-5.07-14.542-9.437-20.882
			c17.472-25.464,14.906-60.641-7.704-83.25c-12.356-12.354-28.783-19.16-46.256-19.16c-13.411,0-26.207,4.007-37.016,11.458
			c-14.978-10.28-33.396-13.698-50.703-10.001c0.262-2.618,0.42-5.258,0.42-7.928c0-43.285-35.215-78.5-78.5-78.5
			c-9.206,0-18.123,1.571-26.628,4.655L142.086,9.803c-9.593-9.589-23.886-12.434-36.417-7.243
			C93.137,7.75,85.04,19.87,85.04,33.434v633.793c0,7.225,5.857,13.082,13.084,13.082h633.793c13.564,0,25.684-8.096,30.873-20.629
			C767.98,647.149,765.138,632.854,755.544,623.264z M646.41,513.885c0.635-1.207,1.238-2.422,1.789-3.656
			c28.592,0.313,51.76,23.666,51.76,52.332c0,1.646-0.076,3.275-0.225,4.893l-53.402-53.404
			C646.359,513.995,646.38,513.938,646.41,513.885z M523.978,391.077c0.127-0.607,0.252-1.213,0.363-1.824
			c0.002-0.01,0.004-0.018,0.004-0.025c1.02-5.57,1.393-11.393,1.133-17.396c6.256,1.824,12.025,5.197,16.744,9.918
			c5.111,5.109,13.395,5.109,18.504,0c15.303-15.301,40.203-15.303,55.508,0c7.414,7.412,11.496,17.27,11.496,27.752
			c0,10.486-4.084,20.342-11.496,27.756c-2.453,2.453-3.832,5.781-3.832,9.25s1.379,6.799,3.832,9.25
			c10.258,10.258,13.736,24.936,10.092,38.178c-0.008,0.027-0.02,0.051-0.027,0.078L523.876,391.59
			C523.912,391.422,523.943,391.247,523.978,391.077z M462.212,300.256c18.869,18.869,31.633,41.752,35.744,61.971
			c0.025,0.131,0.051,0.266,0.078,0.396c0.213,1.076,0.393,2.143,0.555,3.201c0.029,0.189,0.051,0.375,0.078,0.561l-102.61-102.611
			C417.25,266.87,442.031,280.072,462.212,300.256z M322.333,161.861c5.109,5.107,13.394,5.107,18.504,0
			c7.413-7.415,17.27-11.497,27.753-11.497c10.484,0,20.34,4.082,27.753,11.497c15.303,15.301,15.303,40.203,0,55.507
			c-5.109,5.109-5.109,13.394,0,18.503c0.562,0.563,1.105,1.143,1.63,1.732c-8.27-1.021-16.282-0.913-23.833,0.368
			c-0.056,0.009-0.113,0.019-0.167,0.029c-0.923,0.159-1.839,0.335-2.749,0.53c-0.114,0.025-0.231,0.041-0.346,0.066L284.07,151.79
			C297.333,148.108,312.055,151.583,322.333,161.861z M202.791,65.394c28.856,0,52.333,23.478,52.333,52.333
			c0,1.646-0.074,3.276-0.223,4.892l-57.003-57.002C199.514,65.467,201.144,65.394,202.791,65.394z M738.615,649.668
			c-0.557,1.344-2.326,4.475-6.699,4.475H111.207v-26.166h78.5c7.226,0,13.083-5.859,13.083-13.084
			c0-7.223-5.857-13.082-13.083-13.082h-78.5V33.434c0-4.373,3.129-6.14,4.474-6.697c1.346-0.558,4.81-1.521,7.901,1.572
			l40.34,40.34c0.001,0.001,0.002,0.004,0.005,0.005l87.937,87.937c0.002,0.003,0.004,0.004,0.007,0.007l1.123,1.123
			c0.002,0.001,0.004,0.004,0.005,0.007l104.808,104.808l142.127,142.13l120.432,120.432l76.33,76.328
			c0.002,0.004,0.004,0.004,0.006,0.008l40.34,40.338C740.134,644.858,739.171,648.323,738.615,649.668z"/>
	</g>
</g>
<g>
	<g>
		<path fill="#808080" d="M202.791,170.06h-52.333c-7.226,0-13.083,5.858-13.083,13.083c0,7.224,5.857,13.083,13.083,13.083h52.333
			c7.226,0,13.083-5.858,13.083-13.083C215.873,175.918,210.016,170.06,202.791,170.06z"/>
	</g>
</g>
<g>
	<g>
		<path fill="#808080" d="M294.374,300.894H150.457c-7.226,0-13.083,5.858-13.083,13.083c0,7.224,5.857,13.082,13.083,13.082
			h143.917c7.226,0,13.083-5.858,13.083-13.082C307.456,306.752,301.599,300.894,294.374,300.894z"/>
	</g>
</g>
<g>
	<g>
		<path fill="#808080" d="M425.207,431.727h-274.75c-7.226,0-13.083,5.859-13.083,13.082c0,7.225,5.857,13.084,13.083,13.084h274.75
			c7.226,0,13.082-5.859,13.082-13.084C438.291,437.586,432.433,431.727,425.207,431.727z"/>
	</g>
</g>
<g>
	<g>
		<path fill="#808080" d="M241.778,612.342c-0.157-0.836-0.418-1.662-0.746-2.459c-0.327-0.787-0.732-1.545-1.204-2.25
			c-0.471-0.723-1.021-1.389-1.623-1.992c-0.602-0.602-1.269-1.15-1.989-1.621c-0.707-0.469-1.465-0.877-2.25-1.205
			c-0.799-0.326-1.623-0.588-2.459-0.744c-1.674-0.34-3.415-0.34-5.103,0c-0.837,0.156-1.661,0.418-2.459,0.744
			c-0.785,0.328-1.544,0.734-2.251,1.205c-0.72,0.471-1.387,1.02-1.989,1.621c-0.602,0.604-1.15,1.27-1.622,1.992
			c-0.47,0.705-0.877,1.463-1.204,2.25c-0.327,0.799-0.588,1.623-0.745,2.459c-0.17,0.838-0.262,1.701-0.262,2.551
			s0.092,1.715,0.262,2.553c0.157,0.836,0.418,1.66,0.745,2.443c0.327,0.799,0.732,1.559,1.204,2.264
			c0.47,0.721,1.021,1.387,1.622,1.988c0.602,0.604,1.269,1.152,1.989,1.623c0.707,0.471,1.466,0.877,2.263,1.203
			c0.786,0.328,1.609,0.59,2.446,0.746c0.837,0.17,1.701,0.262,2.551,0.262s1.714-0.092,2.551-0.262
			c0.837-0.156,1.661-0.418,2.459-0.746c0.785-0.326,1.544-0.73,2.251-1.203c0.72-0.469,1.387-1.02,1.989-1.623
			c2.433-2.432,3.833-5.807,3.833-9.248C242.04,614.043,241.948,613.178,241.778,612.342z"/>
	</g>
</g>
</svg>
