<?xml version="1.0" encoding="utf-8"?>
<!-- Generator: Adobe Illustrator 16.0.0, SVG Export Plug-In . SVG Version: 6.00 Build 0)  -->
<!DOCTYPE svg PUBLIC "-//W3C//DTD SVG 1.1//EN" "http://www.w3.org/Graphics/SVG/1.1/DTD/svg11.dtd">
<svg version="1.1" id="圖層_1" xmlns="http://www.w3.org/2000/svg" xmlns:xlink="http://www.w3.org/1999/xlink" x="0px" y="0px"
	 width="512px" height="512px" viewBox="0 0 512 512" enable-background="new 0 0 512 512" xml:space="preserve">
<path fill="#808080" d="M80,282c0,5.523-4.477,10-10,10s-10-4.477-10-10s4.477-10,10-10S80,276.477,80,282z"/>
<path fill="#808080" d="M135.383,393.145c-26.473-16.918-45.008-43.051-52.188-73.582c-1.266-5.379-6.648-8.711-12.023-7.445
	c-5.375,1.262-8.711,6.645-7.445,12.023c8.379,35.629,30.004,66.121,60.891,85.855c4.625,2.957,10.816,1.641,13.809-3.043
	C141.398,402.301,140.039,396.117,135.383,393.145z"/>
<path fill="#808080" d="M483.922,206.02C472.406,193.297,455.961,186,438.801,186H380v-16c0-5.523-4.477-10-10-10H30
	c-5.523,0-10,4.477-10,10v122c0,55.047,24.984,106.184,66.855,140H10c-5.523,0-10,4.477-10,10s4.477,10,10,10
	c5.883,0,11.141,3.949,12.789,9.605C31.422,491.277,59.059,512,90,512h240c30.938,0,58.578-20.723,67.211-50.391
	c1.648-5.66,6.906-9.609,12.789-9.609c5.523,0,10-4.477,10-10s-4.477-10-10-10h-96.844c7.617-6.16,14.727-12.949,21.297-20.332
	c3.281,0.188,6.535,0.293,9.758,0.293c40.117-0.004,75.727-14.645,103.676-42.813c28.574-28.797,46.852-70.078,51.473-116.234
	C501.066,235.836,495.438,218.742,483.922,206.02z M380,246h58.801c0.289,0,0.402,0.016,0.613,0.246
	c0.273,0.305,0.266,0.414,0.234,0.688c-2.707,27.094-14.84,87.473-68.805,101.879C376.922,330.578,380,311.543,380,292V246z
	 M378.008,456.008C371.844,477.191,352.102,492,330,492H90c-22.102,0-41.844-14.797-48.008-35.988
	c-0.402-1.379-0.891-2.73-1.461-4.023h338.938C378.898,453.285,378.41,454.625,378.008,456.008z M122.523,432
	C71.566,403.75,40,350.344,40,292V180h320v112c0,58.953-32.117,112.039-82.5,140H122.523z M479.461,250.926
	c-6.816,68.086-50.121,137.844-129.691,140.918c4.473-6.699,8.5-13.68,12.035-20.914c28.141-3.691,51.852-17.492,68.84-40.148
	c15.641-20.859,25.637-49.164,28.906-81.844c0.598-5.906-1.266-11.602-5.285-16.09c-4.012-4.414-9.504-6.848-15.465-6.848H380v-20
	h58.801c11.691,0,22.449,4.773,30.293,13.441C476.941,228.109,480.621,239.293,479.461,250.926z"/>
<path fill="#808080" d="M191.711,85c0,11.699,3.723,22.797,10.48,31.246c3.461,4.328,9.754,5.004,14.055,1.563
	c4.313-3.449,5.012-9.742,1.563-14.055c-3.875-4.848-6.098-11.68-6.098-18.754s2.223-13.906,6.098-18.75
	c14.02-17.523,14.02-44.977,0-62.496c-3.449-4.313-9.742-5.012-14.055-1.563c-4.316,3.449-5.012,9.742-1.563,14.059
	c8.133,10.164,8.133,27.34,0,37.504C195.434,62.203,191.711,73.301,191.711,85z"/>
<path fill="#808080" d="M251.711,85c0,11.699,3.723,22.797,10.48,31.246c3.461,4.328,9.754,5.004,14.055,1.563
	c4.313-3.449,5.012-9.742,1.563-14.055c-3.875-4.848-6.098-11.68-6.098-18.754s2.223-13.906,6.098-18.75
	c14.02-17.523,14.02-44.977,0-62.496c-3.449-4.313-9.742-5.012-14.055-1.563c-4.316,3.449-5.012,9.742-1.563,14.059
	c8.133,10.164,8.133,27.34,0,37.504C255.434,62.203,251.711,73.301,251.711,85z"/>
<path fill="#808080" d="M131.711,85c0,11.699,3.723,22.797,10.48,31.246c3.461,4.328,9.754,5.004,14.055,1.563
	c4.313-3.449,5.012-9.742,1.563-14.055c-3.875-4.848-6.098-11.68-6.098-18.754s2.223-13.906,6.098-18.75
	c14.02-17.523,14.02-44.977,0-62.496c-3.449-4.313-9.746-5.012-14.055-1.563c-4.316,3.449-5.012,9.742-1.563,14.059
	c8.133,10.164,8.133,27.34,0,37.504C135.434,62.203,131.711,73.301,131.711,85z"/>
</svg>
