<?xml version="1.0" encoding="utf-8"?>
<!-- Generator: Adobe Illustrator 16.0.0, SVG Export Plug-In . SVG Version: 6.00 Build 0)  -->
<!DOCTYPE svg PUBLIC "-//W3C//DTD SVG 1.1//EN" "http://www.w3.org/Graphics/SVG/1.1/DTD/svg11.dtd">
<svg version="1.1" id="Capa_1" xmlns="http://www.w3.org/2000/svg" xmlns:xlink="http://www.w3.org/1999/xlink" x="0px" y="0px"
	 width="512px" height="512px" viewBox="0 0 512 512" enable-background="new 0 0 512 512" xml:space="preserve">
<path id="XMLID_658_" fill="#808080" d="M394,334.375c65.065,0,118-52.936,118-118c0-61.715-47.625-112.508-108.053-117.577V50
	c0-5.522-4.477-10-10-10h-360c-5.523,0-10,4.478-10,10v153.457c0,27.615,3.568,54.98,10.607,81.591
	c-8.061-1.53-16.28-2.323-24.551-2.323c-5.523,0-10,4.478-10,10c0,46.851,24.675,88.04,61.708,111.275H10c-5.523,0-10,4.478-10,10
	v1.443C0,446.629,25.371,472,56.556,472h110.651c5.523,0,10-4.478,10-10s-4.477-10-10-10H56.556c-17.212,0-31.684-11.956-35.545-28
	H131.26c0.01,0,0.02,0.002,0.031,0.002s0.02-0.002,0.03-0.002h179.813H403.4c-3.86,16.044-18.332,28-35.545,28H257.206
	c-5.523,0-10,4.478-10,10s4.477,10,10,10h110.649c31.186,0,56.557-25.371,56.557-56.557V414c0-5.522-4.477-10-10-10h-81.374
	c17.344-21.439,31.707-44.839,42.864-69.625H394z M492,216.375c0,54.037-43.962,98-98,98h-9.904c2.922-7.887,5.528-15.893,7.818-24
	H394c40.804,0,74-33.195,74-74c0-37.429-27.939-68.436-64.053-73.312v-24.186C453.331,123.877,492,165.695,492,216.375z
	 M403.947,163.309c25.038,4.684,44.053,26.69,44.053,53.066c0,28.802-22.666,52.406-51.098,53.92
	c4.654-21.805,7.045-44.217,7.045-66.922V163.309z M383.947,88.063H307.26V60h76.688L383.947,88.063L383.947,88.063z M287.26,60
	v28.063H43.947V60H287.26z M20.494,303.218c14.056,1.327,27.741,5.313,40.266,11.735c0.445,9.355,1.893,18.731,4.375,27.996
	c5.602,20.909,16.029,39.692,30.328,55.135C54.801,384.223,24.65,347.443,20.494,303.218z M127.458,399.676
	c-21.114-14.954-36.224-36.599-43.004-61.902c-2.506-9.354-3.769-18.843-3.829-28.275c0.02-0.363,0.023-0.726,0.003-1.087
	c0.054-15.72,3.458-31.265,10.118-45.75C134.163,293.475,149.652,351.281,127.458,399.676L127.458,399.676z M147.398,404
	c25.132-59.997,2.298-130.964-55.489-164.327c-2.296-1.326-5.025-1.687-7.588-0.999c-2.562,0.687-4.746,2.362-6.072,4.659
	c-9.014,15.612-14.615,32.549-16.706,49.924c-1.439-0.614-2.887-1.204-4.346-1.765c-8.789-28.544-13.25-58.134-13.25-88.035v-95.395
	H287.26v54.313h-16.563c-12.579,0-22.813,10.233-22.813,22.813v54.375c0,12.579,10.234,22.813,22.813,22.813h54.375
	c12.578,0,22.813-10.233,22.813-22.813v-54.375c0-12.579-10.234-22.813-22.813-22.813H307.26v-54.313h76.688v95.311
	c0,25.111-3.13,49.836-9.175,73.699c-0.193,0.555-0.338,1.131-0.434,1.726c-3.613,13.918-8.238,27.531-13.811,40.753
	c-0.327,0.594-0.598,1.225-0.801,1.884c-12.869,29.967-30.672,57.869-52.992,82.564L147.398,404L147.398,404z M325.072,182.375
	c1.551,0,2.813,1.262,2.813,2.813v54.375c0,1.551-1.262,2.813-2.813,2.813h-54.375c-1.551,0-2.813-1.262-2.813-2.813v-54.375
	c0-1.551,1.263-2.813,2.813-2.813H325.072z"/>
<path id="XMLID_1939_" fill="#808080" d="M212.21,452c-2.63,0-5.21,1.069-7.08,2.93c-1.86,1.86-2.92,4.44-2.92,7.07
	s1.06,5.21,2.92,7.069c1.87,1.859,4.45,2.931,7.08,2.931s5.21-1.07,7.07-2.931c1.86-1.859,2.93-4.439,2.93-7.069
	s-1.07-5.21-2.93-7.07C217.42,453.07,214.84,452,212.21,452z"/>
</svg>
