<?xml version="1.0" encoding="utf-8"?>
<!-- Generator: Adobe Illustrator 16.0.0, SVG Export Plug-In . SVG Version: 6.00 Build 0)  -->
<!DOCTYPE svg PUBLIC "-//W3C//DTD SVG 1.1//EN" "http://www.w3.org/Graphics/SVG/1.1/DTD/svg11.dtd">
<svg version="1.1" id="圖層_1" xmlns="http://www.w3.org/2000/svg" xmlns:xlink="http://www.w3.org/1999/xlink" x="0px" y="0px"
	 width="850.39px" height="680.309px" viewBox="0 0 850.39 680.309" enable-background="new 0 0 850.39 680.309"
	 xml:space="preserve">
<g>
	<path fill="#808080" d="M565.636,225.285L499.943,95.12V65.136h3.617c5.996,0,10.857-4.859,10.857-10.856V10.856
		C514.417,4.859,509.556,0,503.56,0H346.829c-5.996,0-10.856,4.859-10.856,10.856V54.28c0,5.997,4.861,10.856,10.856,10.856h3.619
		V95.12l-65.695,130.165c-7.967,15.785-14.208,42.001-14.208,59.684v355.536c0,21.947,17.856,39.805,39.805,39.805h229.689
		c21.949,0,39.805-17.857,39.805-39.805V284.969C579.843,267.285,573.603,241.07,565.636,225.285L565.636,225.285z M357.685,21.712
		h135.018v21.712H357.685V21.712z M370.996,102.595c0.766-1.517,1.164-3.192,1.164-4.891V65.136h106.068v32.568
		c0,1.699,0.398,3.374,1.164,4.891l41.314,81.858c-7.832,2.539-13.322,6.634-18.074,10.186c-6.443,4.818-11.1,8.298-21.48,8.298
		c-10.383,0-15.039-3.48-21.482-8.298c-7.521-5.622-16.883-12.621-34.483-12.621s-26.959,6.999-34.48,12.622
		c-6.443,4.817-11.098,8.297-21.478,8.297s-15.035-3.48-21.478-8.297c-4.75-3.552-10.241-7.647-18.072-10.186L370.996,102.595z
		 M558.132,640.504c0,9.979-8.117,18.094-18.094,18.094H310.351c-9.977,0-18.093-8.115-18.093-18.094V284.969
		c0-14.292,5.439-37.144,11.879-49.903l15.54-30.789c6.231,1.154,10.131,4.056,15.075,7.751c7.52,5.624,16.88,12.622,34.479,12.622
		c17.598,0,26.959-6.999,34.479-12.622c6.443-4.817,11.098-8.297,21.478-8.297c10.38,0,15.039,3.48,21.482,8.298
		c7.521,5.624,16.881,12.621,34.482,12.621c17.6,0,26.959-6.999,34.482-12.621c4.943-3.697,8.846-6.599,15.078-7.752l15.539,30.791
		c6.439,12.756,11.881,35.609,11.881,49.901V640.504z"/>
	<path fill="#808080" d="M324.826,571.75c-5.996,0-10.856,4.859-10.856,10.855v43.424c0,5.996,4.861,10.855,10.856,10.855
		c5.995,0,10.856-4.859,10.856-10.855v-43.424C335.682,576.61,330.821,571.75,324.826,571.75z"/>
	<path fill="#808080" d="M338.104,240.051c-5.353-2.701-11.881-0.553-14.583,4.799c-4.82,9.55-9.551,29.421-9.551,40.119v254.213
		c0,5.996,4.861,10.855,10.856,10.855c5.995,0,10.856-4.859,10.856-10.855V284.969c0-7.34,3.914-23.783,7.221-30.334
		C345.604,249.282,343.455,242.752,338.104,240.051z"/>
	<path fill="#808080" d="M404.728,108.56h40.932c5.996,0,10.857-4.859,10.857-10.856s-4.861-10.856-10.857-10.856h-40.932
		c-5.995,0-10.856,4.859-10.856,10.856S398.732,108.56,404.728,108.56L404.728,108.56z"/>
</g>
</svg>
