<?xml version="1.0" encoding="utf-8"?>
<!-- Generator: Adobe Illustrator 16.0.0, SVG Export Plug-In . SVG Version: 6.00 Build 0)  -->
<!DOCTYPE svg PUBLIC "-//W3C//DTD SVG 1.1//EN" "http://www.w3.org/Graphics/SVG/1.1/DTD/svg11.dtd">
<svg version="1.1" id="Capa_1" xmlns="http://www.w3.org/2000/svg" xmlns:xlink="http://www.w3.org/1999/xlink" x="0px" y="0px"
	 width="512px" height="512px" viewBox="0 0 512 512" enable-background="new 0 0 512 512" xml:space="preserve">
<g>
	<path fill="#808080" d="M402.496,289.563c-2.734-7.961-4.051-11.918-4.051-14.816s1.314-6.854,4.054-14.826
		c2.036-5.947,5.114-14.936-1.465-23.668c-2.228-2.966-4.085-5.39-5.646-7.427c-6.793-8.86-6.793-8.86-8.951-18.953
		c-0.041-0.19-0.086-0.401-0.129-0.597c1.842-0.534,3.711-1.16,5.563-1.934c3.665-1.555,7.081-3.612,10.372-5.838
		c1.719-1.163,3.423-2.351,5.11-3.558c1.424-1.018,2.801-2.188,4.424-2.884c2.713-1.164,6.685-1.038,9.268,0.426
		c3.237,1.834,6.169,4.326,9.268,6.388c3.126,2.081,6.371,4.006,9.835,5.475c5.302,2.236,10.561,3.239,15.646,4.21
		c2.289,0.438,4.451,0.85,6.479,1.35c1.949,0.487,2.425,1.147,2.788,2.777c0.736,3.284,1.313,5.993,1.801,8.274
		c2.958,13.89,3.549,15.152,12.653,27.029c1.527,1.991,3.344,4.359,5.52,7.257c-0.022,0.995-0.876,3.489-1.447,5.16
		c-6.848,19.933-6.848,22.724-0.004,42.646c0.575,1.683,1.429,4.178,1.451,5.171c-2.152,2.862-3.952,5.209-5.469,7.187
		c-7.932,10.34-9.423,12.656-11.611,22.126H386.24c0.064-0.305,0.134-0.624,0.195-0.915c2.16-10.093,2.16-10.093,8.953-18.955
		c1.563-2.037,3.418-4.46,5.637-7.413C407.613,304.507,404.535,295.52,402.496,289.563L402.496,289.563z M510.208,344.823
		c-1.87-2.688-4.936-4.288-8.208-4.288h-13.211c1.12-2.75,2.802-4.943,6.645-9.953c1.555-2.025,3.396-4.429,5.598-7.355
		c6.579-8.732,3.507-17.71,1.471-23.66c-2.735-7.963-4.051-11.918-4.051-14.83s1.314-6.868,4.055-14.842
		c2.032-5.94,5.104-14.918-1.465-23.639c-2.229-2.969-4.09-5.395-5.653-7.435c-6.803-8.874-6.803-8.874-8.966-19.026
		c-0.498-2.342-1.091-5.121-1.844-8.475c-2.047-9.186-8.246-15.513-17.484-17.821c-2.574-0.635-5.104-1.118-7.55-1.585
		c-2.959-0.565-5.937-1.11-8.822-1.989c-2.745-0.837-5.265-2.108-7.689-3.633c-4.79-3.012-9.175-7.012-14.363-9.342
		c-8.304-3.729-19.546-3.582-27.467,1.095c-5.795,3.421-10.854,8.218-17.095,10.865c-1.549,0.647-3.226,1.156-4.959,1.594
		c-3.039-3.381-7.112-5.775-12.06-6.979c-2.547-0.628-5.052-1.111-7.476-1.578c-4.277-0.824-8.319-1.603-11.68-3.02
		c-3.365-1.427-6.713-3.777-10.257-6.267c-2.051-1.44-4.173-2.931-6.422-4.335c-8.271-5.187-22.25-5.186-30.506-0.011
		c-2.267,1.415-4.39,2.905-6.438,4.346c-3.545,2.489-6.893,4.84-10.234,6.258c-3.383,1.426-7.424,2.204-11.702,3.028
		c-2.423,0.467-4.929,0.95-7.442,1.571c-9.215,2.243-15.423,8.544-17.479,17.683c-6.066-1.491-12.361-0.452-18.012,3.132
		c-2.931,1.853-5.322,3.402-7.336,4.707c-8.687,5.628-8.687,5.628-19.765,7.094c-2.474,0.327-5.413,0.718-8.908,1.214
		c-0.4-2.294-0.818-4.652-1.371-7.062c-2.191-9.509-12.077-19.394-21.597-21.586c-2.566-0.589-5.089-1.028-7.528-1.454
		c-4.287-0.747-8.337-1.453-11.731-2.828c-3.427-1.388-6.851-3.712-10.476-6.174c-2.016-1.368-4.1-2.783-6.361-4.157
		c-8.1-4.856-16.938-4.775-24.918,0.238c-2.955,1.87-5.363,3.432-7.388,4.745c-8.66,5.618-8.66,5.618-19.754,7.085
		c-2.542,0.337-5.564,0.736-9.185,1.252c-10.846,1.494-15.039,10.023-17.831,15.703c-3.678,7.556-5.536,11.278-7.596,13.337
		c-2.047,2.046-5.776,3.916-13.342,7.615c-5.64,2.755-14.163,6.919-15.715,17.775c-0.524,3.672-0.925,6.698-1.262,9.244
		c-1.466,11.072-1.466,11.072-7.095,19.756c-1.306,2.014-2.855,4.403-4.713,7.341c-5.042,7.988-5.13,16.843-0.242,24.938
		c1.368,2.263,2.808,4.382,4.2,6.433c2.438,3.588,4.74,6.979,6.109,10.354c1.37,3.396,2.079,7.42,2.829,11.679
		c0.436,2.475,0.887,5.033,1.482,7.594c0.107,0.472,0.231,0.92,0.364,1.36H10c-3.272,0-6.338,1.602-8.208,4.288
		c-1.869,2.686-2.306,6.117-1.169,9.186l39.996,107.966c1.453,3.924,5.194,6.526,9.377,6.526h412.008
		c4.183,0,7.924-2.604,9.377-6.526l39.996-107.966C512.513,350.94,512.077,347.508,510.208,344.823z M266.939,205.683
		c0.391-1.76,0.925-2.297,2.752-2.741c2.045-0.505,4.192-0.919,6.467-1.357c5.101-0.982,10.375-1.999,15.707-4.246
		c5.313-2.254,9.699-5.334,13.939-8.312c1.916-1.347,3.729-2.619,5.553-3.757c1.775-1.113,7.496-1.114,9.291,0.011
		c1.807,1.127,3.617,2.399,5.535,3.746c4.239,2.978,8.625,6.058,13.961,8.32c5.311,2.238,10.584,3.255,15.686,4.237
		c2.273,0.438,4.421,0.853,6.496,1.364c1.798,0.438,2.332,0.975,2.73,2.772c0.748,3.313,1.332,6.04,1.821,8.334
		c2.957,13.823,3.548,15.082,12.638,26.938c1.524,1.99,3.338,4.356,5.512,7.251c-0.016,1.007-0.906,3.609-1.447,5.188
		c-6.841,19.92-6.841,22.708-0.003,42.618c0.544,1.588,1.435,4.19,1.45,5.197c-2.172,2.895-3.985,5.26-5.512,7.249
		c-9.09,11.856-9.681,13.116-12.638,26.938c-0.319,1.497-0.687,3.2-1.103,5.1h-53.053c0.267-0.918,0.494-1.874,0.643-2.909
		c0.521-3.675,0.918-6.703,1.252-9.25c1.453-11.064,1.453-11.064,7.098-19.764c1.307-2.015,2.857-4.405,4.705-7.323
		c5.075-7.994,5.148-16.857,0.245-24.9c-1.392-2.32-2.864-4.486-4.288-6.584c-2.411-3.549-4.688-6.9-6.039-10.234
		c-1.382-3.423-2.089-7.479-2.838-11.772c-0.425-2.433-0.863-4.948-1.453-7.529c-2.199-9.542-12.105-19.418-21.559-21.549
		c-2.614-0.61-5.178-1.063-7.657-1.5c-4.249-0.749-8.263-1.457-11.64-2.819c-1.836-0.744-3.674-1.761-5.539-2.92
		C266.021,209.773,266.441,207.859,266.939,205.683L266.939,205.683z M193.348,307.653c0.522-3.672,0.924-6.699,1.261-9.245
		c1.466-11.08,1.466-11.08,7.079-19.748c1.31-2.021,2.865-4.424,4.716-7.354c5.051-7.955,5.148-16.81,0.245-24.977
		c-1.346-2.215-2.763-4.301-4.133-6.317c-0.787-1.159-1.555-2.295-2.288-3.419c1.747-0.238,3.32-0.446,4.735-0.633
		c14.819-1.961,16.129-2.435,28.016-10.136c1.962-1.271,4.292-2.781,7.163-4.596c1.508-0.958,2.345-0.962,3.879-0.037
		c1.782,1.082,3.571,2.297,5.466,3.583c4.328,2.938,8.804,5.977,14.21,8.167c5.336,2.151,10.585,3.077,15.662,3.973
		c2.314,0.408,4.502,0.794,6.656,1.297c2.035,0.459,6.07,4.496,6.539,6.53c0.471,2.058,0.846,4.211,1.244,6.491
		c0.895,5.131,1.819,10.436,3.999,15.835c2.154,5.315,5.146,9.719,8.037,13.976c1.327,1.953,2.58,3.798,3.72,5.695
		c0.938,1.541,0.936,2.327-0.025,3.841c-1.807,2.854-3.317,5.186-4.592,7.146c-7.729,11.911-8.201,13.223-10.147,28.046
		c-0.327,2.487-0.716,5.445-1.222,9.021c-0.715,0.7-3.188,1.909-4.687,2.641c-2.446,1.191-4.478,2.186-6.278,3.101H159.576
		c1.946-3.822,3.294-6.085,4.729-7.521c2.049-2.05,5.772-3.917,13.288-7.592C182.9,322.858,191.782,318.567,193.348,307.653
		L193.348,307.653z M22.476,288.861c1.806-2.854,3.316-5.185,4.587-7.146c7.705-11.884,8.179-13.192,10.141-28.01
		c0.329-2.487,0.721-5.444,1.231-9.027c0.714-0.701,3.188-1.91,4.7-2.648c18.954-9.268,20.926-11.241,30.12-30.132
		c0.785-1.597,1.95-3.966,2.643-4.686c3.585-0.511,6.543-0.901,9.03-1.23c14.841-1.963,16.15-2.437,28.017-10.134
		c1.972-1.279,4.317-2.801,7.171-4.606c1.539-0.968,2.354-0.97,3.915-0.033c1.781,1.082,3.569,2.296,5.462,3.581
		c4.33,2.939,8.807,5.979,14.201,8.164c5.368,2.175,10.674,3.1,15.805,3.994c2.283,0.398,4.44,0.774,6.483,1.243
		c2.052,0.473,6.115,4.534,6.586,6.577c0.471,2.051,0.847,4.207,1.245,6.49c0.896,5.129,1.82,10.433,3.996,15.799
		c2.185,5.393,5.225,9.867,8.164,14.193c1.286,1.894,2.501,3.683,3.556,5.418c0.957,1.595,0.955,2.397-0.021,3.937
		c-1.814,2.873-3.331,5.213-4.606,7.184c-7.686,11.867-8.158,13.176-10.119,27.996c-0.327,2.465-0.714,5.392-1.233,9.018
		c-0.732,0.716-3.266,1.938-4.697,2.631c-18.913,9.247-20.884,11.221-30.126,30.142c-0.437,0.889-0.991,2.011-1.514,2.961H44.502
		c-2.35-1.491-4.736-4.422-5.062-5.84c-0.485-2.085-0.87-4.271-1.278-6.584c-0.896-5.088-1.823-10.35-3.984-15.707
		c-2.173-5.36-5.189-9.801-8.106-14.096c-1.304-1.919-2.535-3.732-3.627-5.538C21.499,291.204,21.506,290.398,22.476,288.861
		L22.476,288.861z M471.336,404.521H210.859c-5.522,0-10,4.479-10,10c0,5.522,4.478,10,10,10h253.068l-8.883,23.979H56.956
		l-8.883-23.979h72.958c5.522,0,10-4.478,10-10c0-5.521-4.478-10-10-10H40.664l-16.295-43.985h463.262L471.336,404.521z"/>
	<path fill="#808080" d="M116.977,246.278h0.057c5.522,0,9.972-4.478,9.972-10s-4.506-10-10.028-10s-10,4.478-10,10
		S111.455,246.278,116.977,246.278z"/>
	<path fill="#808080" d="M117.034,271.277c-5.522,0-10,4.479-10,10c0,5.522,4.478,10,10,10h0.057c5.522,0,9.972-4.478,9.972-10
		C127.063,275.756,122.556,271.277,117.034,271.277z"/>
	<path fill="#808080" d="M249.863,274.586h0.057c5.522,0,9.973-4.479,9.973-10s-4.506-10-10.028-10c-5.522,0-10,4.479-10,10
		S244.341,274.586,249.863,274.586L249.863,274.586z"/>
	<path fill="#808080" d="M234.698,317.235h0.028c5.522,0,9.985-4.479,9.985-10c0-5.522-4.491-10.001-10.014-10.001
		c-5.523,0-10,4.479-10,10.001C224.697,312.757,229.176,317.235,234.698,317.235z"/>
	<path fill="#808080" d="M349.385,262.572h0.057c5.522,0,9.973-4.479,9.973-10s-4.506-10-10.028-10s-10,4.478-10,10
		C339.385,258.094,343.863,262.572,349.385,262.572L349.385,262.572z"/>
	<path fill="#808080" d="M74.94,317.518h0.057c5.522,0,9.972-4.478,9.972-10c0-5.521-4.506-10-10.028-10s-10,4.479-10,10
		C64.941,313.04,69.418,317.518,74.94,317.518z"/>
	<path fill="#808080" d="M437.173,256.762h0.058c5.521,0,9.972-4.478,9.972-10s-4.506-10-10.028-10c-5.521,0-10,4.478-10,10
		S431.65,256.762,437.173,256.762z"/>
	<path fill="#808080" d="M430.234,310.493c0,5.521,4.478,10,10,10h0.027c5.522,0,9.986-4.479,9.986-10c0-5.522-4.492-10-10.015-10
		C434.71,300.493,430.234,304.971,430.234,310.493z"/>
	<path fill="#808080" d="M165.959,424.521h0.028c5.522,0,9.986-4.478,9.986-10c0-5.521-4.492-10-10.015-10s-10,4.479-10,10
		C155.958,420.043,160.436,424.521,165.959,424.521z"/>
	<path fill="#808080" d="M316.023,84.358l-0.072,0.086c-7.146,8.562-8.525,18.133-8.4,24.74c-0.177,9.36,2.833,18.176,8.487,24.847
		l0.04,0.046c1.977,2.417,4.85,3.668,7.745,3.668c2.227,0,4.469-0.74,6.325-2.261c4.274-3.497,4.906-9.797,1.408-14.071
		l-0.263-0.313c-3.239-3.823-3.825-8.455-3.745-11.668c0.004-0.165,0.004-0.331,0-0.496c-0.115-4.625,1.148-8.553,3.756-11.676
		c0.146-0.175,0.262-0.316,0.31-0.376l0.077-0.094c7.115-8.56,8.488-18.125,8.363-24.729c0.125-6.602-1.248-16.165-8.361-24.727
		l-0.067-0.082c-3.428-4.286-9.68-5.01-13.998-1.607c-4.338,3.419-5.083,9.707-1.665,14.044c0.084,0.106,0.201,0.25,0.35,0.428
		c3.238,3.897,3.824,8.512,3.744,11.696c-0.004,0.165-0.004,0.331,0,0.496c0.08,3.186-0.506,7.8-3.744,11.695
		C316.196,84.144,316.1,84.262,316.023,84.358L316.023,84.358z"/>
	<path fill="#808080" d="M250.07,72.285c0.103,4.632-1.196,8.68-3.757,11.705l-0.379,0.456c-7.122,8.552-8.495,18.126-8.369,24.737
		c-0.178,9.367,2.821,18.182,8.457,24.846l0.041,0.047c1.977,2.417,4.849,3.668,7.745,3.668c2.227,0,4.469-0.74,6.326-2.261
		c4.274-3.497,4.905-9.797,1.407-14.071l-0.249-0.299c-3.228-3.815-3.81-8.458-3.729-11.681c0.004-0.166,0.004-0.332,0-0.498
		c-0.114-4.639,1.144-8.572,3.74-11.689c0.086-0.104,0.161-0.197,0.228-0.276l0.049-0.058c5.638-6.662,8.647-15.479,8.489-24.85
		c0.158-9.368-2.852-18.184-8.486-24.847l-0.061-0.071c-3.502-4.254-9.79-4.875-14.053-1.383c-4.274,3.498-4.903,9.799-1.406,14.072
		l0.25,0.299c3.235,3.824,3.828,8.478,3.757,11.707C250.066,71.988,250.066,72.136,250.07,72.285L250.07,72.285z"/>
	<path fill="#808080" d="M176.025,84.355l-0.071,0.085c-7.148,8.56-8.528,18.134-8.403,24.744
		c-0.177,9.365,2.834,18.182,8.491,24.852l0.04,0.046c1.977,2.414,4.848,3.663,7.741,3.663c2.229,0,4.473-0.741,6.331-2.265
		c4.272-3.5,4.898-9.801,1.398-14.072l-0.258-0.309c-3.24-3.82-3.825-8.453-3.745-11.667c0.004-0.165,0.004-0.331,0-0.496
		c-0.115-4.627,1.148-8.555,3.755-11.675c0.145-0.174,0.26-0.313,0.313-0.381l0.077-0.094c7.114-8.562,8.486-18.124,8.361-24.725
		c0.125-6.599-1.247-16.159-8.358-24.723l-0.068-0.082c-3.427-4.288-9.676-5.017-13.996-1.615c-4.34,3.416-5.089,9.703-1.674,14.043
		c0.085,0.107,0.203,0.252,0.353,0.433c2.6,3.131,3.86,7.066,3.745,11.696c-0.004,0.165-0.004,0.331,0,0.496
		c0.079,3.184-0.507,7.798-3.745,11.695C176.197,84.143,176.101,84.26,176.025,84.355z"/>
</g>
</svg>
