<?xml version="1.0" encoding="utf-8"?>
<!-- Generator: Adobe Illustrator 16.0.0, SVG Export Plug-In . SVG Version: 6.00 Build 0)  -->
<!DOCTYPE svg PUBLIC "-//W3C//DTD SVG 1.1//EN" "http://www.w3.org/Graphics/SVG/1.1/DTD/svg11.dtd">
<svg version="1.1" id="圖層_1" xmlns="http://www.w3.org/2000/svg" xmlns:xlink="http://www.w3.org/1999/xlink" x="0px" y="0px"
	 width="850.39px" height="680.309px" viewBox="0 0 850.39 680.309" enable-background="new 0 0 850.39 680.309"
	 xml:space="preserve">
<path fill="#808080" d="M104.971,340.155c0-176.571,143.653-320.224,320.225-320.224c78.841,0,154.593,28.905,213.318,81.39
	c4.105,3.675,10.402,3.312,14.07-0.789c3.67-4.101,3.316-10.402-0.789-14.071C589.417,30.706,508.941,0,425.195,0
	c-90.857,0-176.28,35.383-240.527,99.629C120.422,163.875,85.04,249.298,85.04,340.155c0,82.744,30.063,162.494,84.649,224.556
	c1.972,2.242,4.723,3.383,7.489,3.383c2.336,0,4.682-0.814,6.577-2.48c4.131-3.633,4.536-9.934,0.903-14.066
	C133.269,493.125,104.971,418.051,104.971,340.155z"/>
<path fill="#808080" d="M678.894,113.56c-3.67-4.1-9.971-4.458-14.07-0.789c-4.105,3.669-4.459,9.965-0.795,14.071
	c52.484,58.724,81.391,134.477,81.391,213.313c0,176.57-143.654,320.224-320.224,320.224c-79.055,0-154.964-29.045-213.755-81.785
	c-4.095-3.674-10.396-3.332-14.071,0.77c-3.675,4.094-3.333,10.395,0.763,14.07c62.451,56.025,143.088,86.875,227.063,86.875
	c90.857,0,176.279-35.381,240.525-99.627c64.246-64.248,99.629-149.67,99.629-240.527
	C765.349,256.414,734.644,175.938,678.894,113.56z"/>
<path fill="#808080" d="M270.455,122.098c0-3.778-2.144-7.235-5.527-8.922c-3.384-1.682-7.433-1.308-10.448,0.971
	c-20.891,15.799-39.494,34.401-55.288,55.292c-2.284,3.016-2.658,7.064-0.976,10.448c1.687,3.384,5.144,5.522,8.922,5.522h53.352
	c5.502,0,9.965-4.458,9.965-9.965V122.098z M250.524,165.484h-22.345c6.997-7.889,14.455-15.353,22.345-22.344V165.484z"/>
<path fill="#808080" d="M416.444,67.532c0-2.756-1.142-5.393-3.161-7.277c-2.014-1.884-4.724-2.839-7.475-2.663
	c-39.633,2.663-77.497,13.396-112.537,31.9c-3.27,1.729-5.315,5.118-5.315,8.813v77.145c0,5.501,4.464,9.965,9.966,9.965h108.556
	c5.507,0,9.965-4.464,9.965-9.965V67.532z M396.513,165.484h-88.625v-61.096c27.882-13.936,57.628-22.65,88.625-25.983V165.484z"/>
<path fill="#808080" d="M562.433,98.274c0-3.696-2.045-7.09-5.32-8.819c-35.051-18.478-72.914-29.201-112.527-31.879
	c-2.756-0.171-5.465,0.778-7.479,2.663c-2.02,1.884-3.162,4.521-3.162,7.277V175.45c0,5.501,4.459,9.965,9.967,9.965h108.557
	c5.506,0,9.965-4.464,9.965-9.965V98.274z M542.501,165.484h-88.625V78.39c30.986,3.343,60.732,12.058,88.625,25.973V165.484z"/>
<path fill="#808080" d="M589.9,185.415h53.352h0.027c5.506,0,9.965-4.464,9.965-9.965c0-2.497-0.92-4.78-2.434-6.524
	c-15.713-20.684-34.18-39.109-54.898-54.779c-3.016-2.279-7.064-2.652-10.449-0.971c-3.385,1.687-5.521,5.144-5.521,8.922v53.352
	C579.935,180.951,584.398,185.415,589.9,185.415z M599.867,143.14c7.889,6.997,15.352,14.455,22.344,22.344h-22.344V143.14z"/>
<path fill="#808080" d="M270.455,212.882c0-5.507-4.463-9.965-9.965-9.965h-77.175c-3.695,0-7.09,2.045-8.813,5.32
	c-18.478,35.051-29.207,72.914-31.885,112.527c-0.187,2.756,0.779,5.466,2.663,7.479c1.884,2.02,4.521,3.161,7.282,3.161h107.928
	c5.502,0,9.965-4.459,9.965-9.966V212.882z M250.524,311.474h-87.089c3.337-30.987,12.052-60.733,25.967-88.626h61.122V311.474z"/>
<path fill="#808080" d="M416.444,212.882c0-5.507-4.464-9.965-9.965-9.965H297.922c-5.507,0-9.966,4.458-9.966,9.965v108.556
	c0,5.507,4.458,9.966,9.966,9.966h108.556c5.501,0,9.965-4.459,9.965-9.966V212.882z M396.513,311.474h-88.625v-88.626h88.625
	V311.474z"/>
<path fill="#808080" d="M562.433,212.882c0-5.507-4.459-9.965-9.965-9.965H443.912c-5.508,0-9.967,4.458-9.967,9.965v108.556
	c0,5.507,4.459,9.966,9.967,9.966h108.557c5.506,0,9.965-4.459,9.965-9.966V212.882z M542.501,311.474h-88.625v-88.626h88.625
	V311.474z"/>
<path fill="#808080" d="M707.722,320.017c-2.762-39.343-13.471-76.952-31.828-111.78c-1.729-3.275-5.123-5.32-8.818-5.32H589.9
	c-5.502,0-9.965,4.458-9.965,9.965v108.556c0,5.507,4.463,9.966,9.965,9.966h107.934h0.025c5.502,0,9.967-4.459,9.967-9.966
	C707.82,320.956,707.789,320.479,707.722,320.017z M599.867,311.474v-88.626h61.121c13.914,27.893,22.629,57.639,25.973,88.626
	H599.867z"/>
<path fill="#808080" d="M270.455,358.872c0-5.508-4.463-9.965-9.965-9.965H152.561c-2.761,0-5.398,1.141-7.282,3.16
	c-1.884,2.014-2.849,4.723-2.663,7.479c2.678,39.613,13.402,77.477,31.885,112.527c1.723,3.275,5.118,5.32,8.813,5.32h77.175
	c5.502,0,9.965-4.459,9.965-9.965V358.872z M250.524,457.461h-61.122c-13.916-27.893-22.63-57.639-25.967-88.625h87.083v88.625
	H250.524z"/>
<path fill="#808080" d="M416.444,358.872c0-5.508-4.464-9.965-9.965-9.965H297.922c-5.507,0-9.966,4.457-9.966,9.965v108.557
	c0,5.506,4.458,9.965,9.966,9.965h108.556c5.501,0,9.965-4.459,9.965-9.965V358.872z M396.513,457.461h-88.625v-88.625h88.625
	V457.461z"/>
<path fill="#808080" d="M562.433,358.872c0-5.508-4.459-9.965-9.965-9.965H443.912c-5.508,0-9.967,4.457-9.967,9.965v108.557
	c0,5.506,4.459,9.965,9.967,9.965h108.557c5.506,0,9.965-4.459,9.965-9.965V358.872z M542.501,457.461h-88.625v-88.625h88.625
	V457.461z"/>
<path fill="#808080" d="M675.894,472.073c18.479-35.051,29.201-72.914,31.879-112.527c0.188-2.756-0.777-5.465-2.662-7.479
	c-1.885-2.02-4.521-3.16-7.277-3.16H589.9c-5.502,0-9.965,4.457-9.965,9.965v108.557c0,5.506,4.463,9.965,9.965,9.965h77.176
	C670.771,477.393,674.166,475.348,675.894,472.073z M599.867,457.461v-88.625h87.094c-3.344,30.986-12.059,60.732-25.973,88.625
	H599.867z"/>
<path fill="#808080" d="M260.489,494.895h-53.352c-3.784,0-7.241,2.145-8.922,5.527c-1.687,3.385-1.308,7.434,0.971,10.449
	c15.799,20.891,34.402,39.492,55.288,55.287c1.765,1.334,3.882,2.02,6.011,2.02c1.515,0,3.036-0.344,4.443-1.043
	c3.384-1.688,5.522-5.145,5.522-8.924V504.86C270.455,499.358,265.991,494.895,260.489,494.895z M250.524,537.17
	c-7.89-6.996-15.348-14.455-22.345-22.344h22.345V537.17z"/>
<path fill="#808080" d="M406.479,494.895H297.922c-5.507,0-9.966,4.463-9.966,9.965v77.176c0,3.695,2.045,7.09,5.32,8.818
	c35.056,18.479,72.914,29.201,112.527,31.879c0.229,0.016,0.452,0.027,0.675,0.027c2.517,0,4.952-0.955,6.805-2.689
	c2.014-1.885,3.161-4.521,3.161-7.277V504.86C416.444,499.358,411.98,494.895,406.479,494.895z M396.513,601.92
	c-30.986-3.344-60.727-12.057-88.625-25.973v-61.121h88.625V601.92z"/>
<path fill="#808080" d="M552.468,494.895H443.912c-5.508,0-9.967,4.463-9.967,9.965v107.934c0,2.756,1.143,5.393,3.162,7.277
	c1.854,1.734,4.287,2.689,6.805,2.689c0.223,0,0.445-0.012,0.674-0.027c39.613-2.678,77.473-13.4,112.527-31.879
	c3.275-1.729,5.32-5.123,5.32-8.818V504.86C562.433,499.358,557.974,494.895,552.468,494.895z M542.501,575.948
	c-27.898,13.916-57.639,22.629-88.625,25.973v-87.094h88.625V575.948z"/>
<path fill="#808080" d="M643.251,494.895H589.9c-5.502,0-9.965,4.463-9.965,9.965v53.352c0,3.779,2.143,7.236,5.527,8.924
	c1.406,0.699,2.922,1.043,4.438,1.043c2.133,0,4.246-0.686,6.012-2.02c20.891-15.795,39.492-34.396,55.287-55.287
	c2.283-3.016,2.656-7.064,0.975-10.449C650.488,497.04,647.031,494.895,643.251,494.895z M599.867,537.17v-22.344h22.344
	C615.218,522.715,607.755,530.178,599.867,537.17z"/>
</svg>
